<svg width="106" height="29" viewBox="0 0 106 29" fill="none" xmlns="http://www.w3.org/2000/svg">
<path d="M14.0417 11.5017L10.25 18L9.51502 19.2717L6.63335 24.195C6.42335 24.5683 5.88669 24.58 5.65336 24.2183L1.71002 18.3267C1.58169 18.1283 1.58169 17.8717 1.71002 17.6733L5.9917 11.2567C6.0967 11.0933 6.28335 11 6.48168 11H13.75L14.0417 11.5017Z" fill="#151515"/>
<path d="M26.98 17.685L19.1633 4.29167C19.07 4.105 18.8716 4 18.6616 4H10.6816C10.2266 4 9.94663 4.49 10.18 4.875L13.75 11L14.0416 11.5017L17.32 17.125C17.5533 17.51 17.2733 18 16.8183 18H10.25L9.51495 19.2717C9.72495 18.8983 10.2616 18.8867 10.4949 19.2483L14.1583 24.7433C14.2633 24.9067 14.4499 25 14.6483 25H22.185C22.3833 25 22.57 24.9067 22.675 24.7433L26.9683 18.3033C27.0849 18.1167 27.0966 17.8833 26.98 17.685Z" fill="#151515"/>
<path d="M46.3835 11.1562C46.3216 10.5773 46.0609 10.1266 45.6013 9.80398C45.1461 9.48138 44.5539 9.32007 43.8248 9.32007C43.3121 9.32007 42.8724 9.39741 42.5056 9.55208C42.1388 9.70675 41.8582 9.91667 41.6638 10.1818C41.4693 10.447 41.3699 10.7497 41.3655 11.09C41.3655 11.3728 41.4296 11.6181 41.5577 11.8258C41.6903 12.0335 41.8693 12.2102 42.0947 12.3561C42.32 12.4975 42.5697 12.6168 42.8437 12.714C43.1177 12.8112 43.3939 12.893 43.6723 12.9593L44.945 13.2775C45.4577 13.3968 45.9504 13.5581 46.4233 13.7614C46.9005 13.9646 47.327 14.221 47.7026 14.5303C48.0827 14.8396 48.3832 15.2131 48.6041 15.6506C48.8251 16.0881 48.9356 16.6007 48.9356 17.1884C48.9356 17.9839 48.7323 18.6843 48.3257 19.2898C47.9192 19.8908 47.3314 20.3614 46.5625 20.7017C45.7979 21.0376 44.8721 21.2055 43.785 21.2055C42.7288 21.2055 41.8118 21.042 41.0341 20.715C40.2607 20.3879 39.6553 19.9107 39.2178 19.2831C38.7847 18.6556 38.5505 17.8911 38.5151 16.9896H40.9346C40.97 17.4624 41.1158 17.8557 41.3721 18.1695C41.6284 18.4833 41.9621 18.7175 42.3731 18.8722C42.7885 19.0268 43.2525 19.1042 43.7651 19.1042C44.2998 19.1042 44.7683 19.0246 45.1704 18.8655C45.577 18.702 45.8952 18.4766 46.125 18.1894C46.3548 17.8977 46.4719 17.5574 46.4763 17.1686C46.4719 16.815 46.368 16.5234 46.1647 16.2936C45.9614 16.0593 45.6764 15.8649 45.3096 15.7102C44.9472 15.5511 44.523 15.4097 44.0369 15.286L42.4924 14.8883C41.3743 14.601 40.4905 14.1657 39.8409 13.5824C39.1957 12.9946 38.8731 12.2146 38.8731 11.2424C38.8731 10.4425 39.0896 9.74211 39.5227 9.1411C39.9602 8.54009 40.5546 8.07386 41.3058 7.74242C42.0571 7.40656 42.9078 7.23863 43.8579 7.23863C44.8213 7.23863 45.6654 7.40656 46.3901 7.74242C47.1193 8.07386 47.6916 8.53567 48.107 9.12784C48.5224 9.71559 48.7367 10.3917 48.75 11.1562H46.3835ZM56.1063 10.8182V12.6742H50.253V10.8182H56.1063ZM51.6981 8.37879H54.0977V17.9375C54.0977 18.2601 54.1463 18.5076 54.2436 18.6799C54.3452 18.8479 54.4778 18.9628 54.6413 19.0246C54.8048 19.0865 54.986 19.1174 55.1849 19.1174C55.3351 19.1174 55.4721 19.1064 55.5958 19.0843C55.724 19.0622 55.8212 19.0423 55.8875 19.0246L56.2919 20.9006C56.1637 20.9448 55.9803 20.9934 55.7417 21.0464C55.5075 21.0994 55.2202 21.1304 54.8799 21.1392C54.2789 21.1569 53.7376 21.0663 53.2559 20.8674C52.7742 20.6641 52.3919 20.3504 52.1091 19.9261C51.8307 19.5019 51.6937 18.9716 51.6981 18.3352V8.37879ZM61.043 21.2055C60.3978 21.2055 59.8167 21.0906 59.2997 20.8608C58.7871 20.6266 58.3805 20.2819 58.08 19.8267C57.7839 19.3715 57.6359 18.8103 57.6359 18.143C57.6359 17.5685 57.7419 17.0934 57.954 16.7178C58.1662 16.3422 58.4556 16.0417 58.8224 15.8163C59.1892 15.5909 59.6024 15.4208 60.062 15.3059C60.526 15.1866 61.0055 15.1004 61.5004 15.0473C62.097 14.9855 62.5809 14.9302 62.9521 14.8816C63.3234 14.8286 63.5929 14.7491 63.7609 14.643C63.9332 14.5325 64.0194 14.3624 64.0194 14.1326V14.0928C64.0194 13.5934 63.8713 13.2068 63.5752 12.9328C63.2792 12.6588 62.8527 12.5218 62.2959 12.5218C61.7081 12.5218 61.2419 12.6499 60.8972 12.9062C60.5569 13.1626 60.3271 13.4653 60.2078 13.8144L57.9673 13.4962C58.1441 12.8775 58.4357 12.3605 58.8423 11.9451C59.2489 11.5253 59.746 11.2115 60.3338 11.0038C60.9215 10.7917 61.5711 10.6856 62.2826 10.6856C62.7732 10.6856 63.2615 10.7431 63.7476 10.858C64.2337 10.9729 64.6778 11.1629 65.08 11.428C65.4821 11.6888 65.8047 12.0445 66.0478 12.4953C66.2953 12.946 66.419 13.5095 66.419 14.1856V21H64.1122V19.6013H64.0326C63.8868 19.8842 63.6813 20.1493 63.4162 20.3968C63.1554 20.6398 62.8262 20.8365 62.4285 20.9867C62.0352 21.1326 61.5734 21.2055 61.043 21.2055ZM61.6662 19.4422C62.1478 19.4422 62.5655 19.3472 62.919 19.1572C63.2725 18.9628 63.5443 18.7064 63.7343 18.3883C63.9288 18.0701 64.026 17.7232 64.026 17.3475V16.1477C63.9509 16.2096 63.8227 16.267 63.6415 16.3201C63.4648 16.3731 63.2659 16.4195 63.0449 16.4593C62.824 16.4991 62.6052 16.5344 62.3887 16.5653C62.1722 16.5963 61.9843 16.6228 61.8252 16.6449C61.4673 16.6935 61.1469 16.773 60.8641 16.8835C60.5812 16.994 60.3581 17.1487 60.1946 17.3475C60.0311 17.542 59.9493 17.7939 59.9493 18.1032C59.9493 18.5451 60.1106 18.8788 60.4332 19.1042C60.7558 19.3295 61.1668 19.4422 61.6662 19.4422ZM68.8319 21V10.8182H71.1586V12.5152H71.2646C71.4502 11.9274 71.7684 11.4744 72.2192 11.1562C72.6744 10.8336 73.1936 10.6723 73.7769 10.6723C73.9095 10.6723 74.0576 10.679 74.2211 10.6922C74.389 10.7011 74.5282 10.7165 74.6387 10.7386V12.946C74.5371 12.9107 74.3758 12.8797 74.1548 12.8532C73.9383 12.8223 73.7283 12.8068 73.5251 12.8068C73.0876 12.8068 72.6942 12.9018 72.3451 13.0919C72.0004 13.2775 71.7287 13.536 71.5298 13.8674C71.3309 14.1989 71.2315 14.5811 71.2315 15.0142V21H68.8319ZM81.8641 10.8182V12.6742H76.0109V10.8182H81.8641ZM77.4559 8.37879H79.8555V17.9375C79.8555 18.2601 79.9042 18.5076 80.0014 18.6799C80.103 18.8479 80.2356 18.9628 80.3991 19.0246C80.5626 19.0865 80.7438 19.1174 80.9427 19.1174C81.0929 19.1174 81.2299 19.1064 81.3537 19.0843C81.4818 19.0622 81.579 19.0423 81.6453 19.0246L82.0497 20.9006C81.9215 20.9448 81.7381 20.9934 81.4995 21.0464C81.2653 21.0994 80.978 21.1304 80.6377 21.1392C80.0367 21.1569 79.4954 21.0663 79.0137 20.8674C78.532 20.6641 78.1497 20.3504 77.8669 19.9261C77.5885 19.5019 77.4515 18.9716 77.4559 18.3352V8.37879ZM90.3605 16.7178V10.8182H92.7601V21H90.4334V19.1903H90.3274C90.0976 19.7604 89.7197 20.2266 89.1939 20.589C88.6724 20.9514 88.0294 21.1326 87.2649 21.1326C86.5976 21.1326 86.0076 20.9845 85.495 20.6884C84.9868 20.3879 84.5891 19.9527 84.3018 19.3826C84.0146 18.8081 83.8709 18.1143 83.8709 17.3011V10.8182H86.2706V16.9299C86.2706 17.5751 86.4473 18.0878 86.8009 18.4678C87.1544 18.8479 87.6184 19.0379 88.1929 19.0379C88.5464 19.0379 88.8889 18.9517 89.2204 18.7794C89.5518 18.607 89.8236 18.3507 90.0357 18.0104C90.2523 17.6657 90.3605 17.2348 90.3605 16.7178ZM95.2277 24.8182V10.8182H97.5876V12.5019H97.7268C97.8505 12.2544 98.0251 11.9915 98.2504 11.7131C98.4758 11.4302 98.7807 11.1894 99.1652 10.9905C99.5497 10.7872 100.04 10.6856 100.637 10.6856C101.423 10.6856 102.133 10.8867 102.765 11.2888C103.401 11.6866 103.905 12.2765 104.276 13.0587C104.652 13.8365 104.839 14.791 104.839 15.9223C104.839 17.0404 104.656 17.9905 104.289 18.7727C103.922 19.5549 103.423 20.1515 102.791 20.5625C102.159 20.9735 101.443 21.179 100.643 21.179C100.06 21.179 99.5762 21.0818 99.1917 20.8873C98.8073 20.6929 98.4979 20.4586 98.2637 20.1847C98.0339 19.9062 97.8549 19.6433 97.7268 19.3958H97.6273V24.8182H95.2277ZM97.5809 15.9091C97.5809 16.5676 97.6737 17.1443 97.8593 17.6392C98.0494 18.1342 98.3211 18.5208 98.6747 18.7992C99.0326 19.0732 99.4657 19.2102 99.9739 19.2102C100.504 19.2102 100.948 19.0688 101.306 18.786C101.664 18.4987 101.934 18.1076 102.115 17.6127C102.301 17.1133 102.393 16.5455 102.393 15.9091C102.393 15.2771 102.303 14.7159 102.122 14.2254C101.94 13.7348 101.671 13.3504 101.313 13.072C100.955 12.7936 100.509 12.6544 99.9739 12.6544C99.4613 12.6544 99.026 12.7891 98.6681 13.0587C98.3101 13.3283 98.0383 13.7061 97.8527 14.1922C97.6715 14.6783 97.5809 15.2506 97.5809 15.9091Z" fill="#151515"/>
</svg>
