<svg width="225" height="25" viewBox="0 0 225 25" fill="none" xmlns="http://www.w3.org/2000/svg">
<path d="M21.9067 11.57C21.8567 11.06 21.4267 10.68 20.9167 10.68H13.3667C12.8167 10.68 12.3667 11.13 12.3667 11.68V13.39C12.3667 13.94 12.8167 14.39 13.3667 14.39H17.8767C17.7667 15.31 17.1667 16.7 15.8367 17.63C14.9867 18.22 13.8567 18.63 12.3667 18.63C12.2967 18.63 12.2367 18.63 12.1667 18.62C9.6167 18.54 7.4567 16.83 6.6767 14.48C6.4667 13.85 6.3467 13.19 6.3467 12.5C6.3467 11.81 6.4667 11.14 6.6667 10.52C6.7267 10.34 6.7967 10.16 6.8767 9.98001C7.7967 7.91001 9.8067 6.45 12.1667 6.38C12.2267 6.37 12.2967 6.37 12.3667 6.37C13.7967 6.37 14.8667 6.83999 15.6167 7.35999C16.0067 7.62999 16.5267 7.56999 16.8667 7.23999L18.2567 5.88C18.6967 5.45 18.6567 4.71999 18.1567 4.35999C16.5667 3.18999 14.6267 2.5 12.3667 2.5C12.2967 2.5 12.2367 2.50001 12.1667 2.51001C8.3367 2.58001 5.0467 4.80001 3.4367 8.01001C2.7567 9.37001 2.3667 10.89 2.3667 12.5C2.3667 14.11 2.7567 15.63 3.4367 16.99H3.4467C5.0567 20.2 8.3467 22.42 12.1667 22.49C12.2367 22.5 12.2967 22.5 12.3667 22.5C15.0667 22.5 17.3367 21.61 18.9867 20.08C20.8767 18.33 21.9667 15.77 21.9667 12.72C21.9667 12.29 21.9467 11.92 21.9067 11.57Z" fill="#E8E8E8"/>
<path d="M54.6667 10.9901V16.9301C54.6667 17.2401 54.8067 17.5401 55.0367 17.7401L60.3967 22.33C61.0967 22.93 62.1667 22.4301 62.1667 21.5201V17.4201H67.0767C68.0267 17.4201 68.5067 16.2701 67.8367 15.5901L62.1667 9.92008H55.7367C55.1467 9.91008 54.6667 10.3901 54.6667 10.9901Z" fill="#E8E8E8"/>
<path d="M68.5967 2.41016H57.2567C56.3067 2.41016 55.8267 3.56014 56.4967 4.24014L62.1667 9.91016H68.5967C69.1867 9.91016 69.6667 9.43015 69.6667 8.84015V3.48016C69.6667 2.89016 69.1867 2.41016 68.5967 2.41016Z" fill="#E8E8E8"/>
<path d="M122.167 16.69C122.167 20.33 119.997 22.5 116.357 22.5H115.167C114.617 22.5 114.167 22.05 114.167 21.5V15.73C114.167 15.46 114.387 15.23 114.657 15.23L116.417 15.2C116.557 15.19 116.677 15.09 116.707 14.95L117.057 13.04C117.087 12.86 116.947 12.69 116.757 12.69L114.627 12.72C114.347 12.72 114.127 12.5 114.117 12.23L114.077 9.78C114.077 9.62 114.207 9.48001 114.377 9.48001L116.777 9.44C116.947 9.44 117.077 9.31001 117.077 9.14001L117.037 6.73999C117.037 6.56999 116.907 6.44 116.737 6.44L114.037 6.48001C112.377 6.51001 111.057 7.87 111.087 9.53L111.137 12.28C111.147 12.56 110.927 12.78 110.647 12.79L109.447 12.81C109.277 12.81 109.147 12.94 109.147 13.11L109.177 15.01C109.177 15.18 109.307 15.31 109.477 15.31L110.677 15.29C110.957 15.29 111.177 15.51 111.187 15.78L111.277 21.48C111.287 22.04 110.837 22.5 110.277 22.5H107.977C104.337 22.5 102.167 20.33 102.167 16.68V8.31C102.167 4.67 104.337 2.5 107.977 2.5H116.357C119.997 2.5 122.167 4.67 122.167 8.31V16.69Z" fill="#E8E8E8"/>
<path d="M172.147 11.91C171.807 6.10995 166.537 1.63996 160.467 2.63996C156.287 3.32996 152.937 6.71994 152.287 10.8999C151.907 13.3199 152.407 15.6099 153.497 17.4999L152.607 20.8099C152.407 21.5599 153.097 22.2399 153.837 22.0299L157.097 21.13C158.577 22 160.307 22.4999 162.157 22.4999C167.797 22.4999 172.477 17.53 172.147 11.91ZM167.047 16.2199C166.957 16.3999 166.847 16.57 166.707 16.73C166.457 17 166.187 17.2 165.887 17.32C165.587 17.45 165.257 17.51 164.907 17.51C164.397 17.51 163.847 17.39 163.277 17.14C162.697 16.89 162.127 16.5599 161.557 16.1499C160.977 15.7299 160.437 15.2599 159.917 14.7499C159.397 14.2299 158.937 13.6799 158.517 13.1099C158.107 12.5399 157.777 11.9699 157.537 11.3999C157.297 10.8299 157.177 10.28 157.177 9.75996C157.177 9.41996 157.237 9.08996 157.357 8.78996C157.477 8.47996 157.667 8.19996 157.937 7.94996C158.257 7.62996 158.607 7.47996 158.977 7.47996C159.117 7.47996 159.257 7.50995 159.387 7.56995C159.517 7.62995 159.637 7.71995 159.727 7.84995L160.887 9.48994C160.977 9.61994 161.047 9.72994 161.087 9.83994C161.137 9.94994 161.157 10.0499 161.157 10.1499C161.157 10.2699 161.117 10.39 161.047 10.51C160.977 10.63 160.887 10.7499 160.767 10.8699L160.387 11.2699C160.327 11.3299 160.307 11.3899 160.307 11.4699C160.307 11.5099 160.317 11.5499 160.327 11.5899C160.347 11.6299 160.357 11.66 160.367 11.6899C160.457 11.86 160.617 12.0699 160.837 12.3299C161.067 12.5899 161.307 12.8599 161.567 13.1199C161.837 13.3899 162.097 13.6299 162.367 13.8599C162.627 14.0799 162.847 14.23 163.017 14.32C163.047 14.33 163.077 14.3499 163.107 14.3599C163.147 14.3799 163.187 14.38 163.237 14.38C163.327 14.38 163.387 14.35 163.447 14.29L163.827 13.91C163.957 13.78 164.077 13.69 164.187 13.63C164.307 13.56 164.417 13.5199 164.547 13.5199C164.647 13.5199 164.747 13.5399 164.857 13.5899C164.967 13.6399 165.087 13.7 165.207 13.79L166.867 14.9699C166.997 15.0599 167.087 15.17 167.147 15.29C167.197 15.42 167.227 15.5399 167.227 15.6799C167.167 15.8499 167.127 16.0399 167.047 16.2199Z" fill="#E8E8E8"/>
<path d="M217.167 4.5H207.167C204.167 4.5 202.167 6.5 202.167 9.5V15.5C202.167 18.5 204.167 20.5 207.167 20.5H217.167C220.167 20.5 222.167 18.5 222.167 15.5V9.5C222.167 6.5 220.167 4.5 217.167 4.5ZM214.057 13.53L211.587 15.01C210.587 15.61 209.767 15.15 209.767 13.98V11.01C209.767 9.84001 210.587 9.38001 211.587 9.98001L214.057 11.46C215.007 12.04 215.007 12.96 214.057 13.53Z" fill="#E8E8E8"/>
</svg>
