<svg width="107" height="29" viewBox="0 0 107 29" fill="none" xmlns="http://www.w3.org/2000/svg">
<path d="M14.5417 11.5017L10.75 18L10.015 19.2717L7.13335 24.195C6.92335 24.5683 6.38669 24.58 6.15336 24.2183L2.21002 18.3267C2.08169 18.1283 2.08169 17.8717 2.21002 17.6733L6.4917 11.2567C6.5967 11.0933 6.78335 11 6.98168 11H14.25L14.5417 11.5017Z" fill="#2EE2B7"/>
<path d="M27.48 17.685L19.6633 4.29167C19.57 4.105 19.3716 4 19.1616 4H11.1816C10.7266 4 10.4466 4.49 10.68 4.875L14.25 11L14.5416 11.5017L17.82 17.125C18.0533 17.51 17.7733 18 17.3183 18H10.75L10.015 19.2717C10.225 18.8983 10.7616 18.8867 10.9949 19.2483L14.6583 24.7433C14.7633 24.9067 14.9499 25 15.1483 25H22.685C22.8833 25 23.07 24.9067 23.175 24.7433L27.4683 18.3033C27.5849 18.1167 27.5966 17.8833 27.48 17.685Z" fill="#2EE2B7"/>
<path d="M46.8835 11.1562C46.8216 10.5773 46.5609 10.1266 46.1013 9.80398C45.6461 9.48138 45.0539 9.32007 44.3248 9.32007C43.8121 9.32007 43.3724 9.39741 43.0056 9.55208C42.6388 9.70675 42.3582 9.91667 42.1638 10.1818C41.9693 10.447 41.8699 10.7497 41.8655 11.09C41.8655 11.3728 41.9296 11.6181 42.0577 11.8258C42.1903 12.0335 42.3693 12.2102 42.5947 12.3561C42.82 12.4975 43.0697 12.6168 43.3437 12.714C43.6177 12.8112 43.8939 12.893 44.1723 12.9593L45.445 13.2775C45.9577 13.3968 46.4504 13.5581 46.9233 13.7614C47.4005 13.9646 47.827 14.221 48.2026 14.5303C48.5827 14.8396 48.8832 15.2131 49.1041 15.6506C49.3251 16.0881 49.4356 16.6007 49.4356 17.1884C49.4356 17.9839 49.2323 18.6843 48.8257 19.2898C48.4192 19.8908 47.8314 20.3614 47.0625 20.7017C46.2979 21.0376 45.3721 21.2055 44.285 21.2055C43.2288 21.2055 42.3118 21.042 41.5341 20.715C40.7607 20.3879 40.1553 19.9107 39.7178 19.2831C39.2847 18.6556 39.0505 17.8911 39.0151 16.9896H41.4346C41.47 17.4624 41.6158 17.8557 41.8721 18.1695C42.1284 18.4833 42.4621 18.7175 42.8731 18.8722C43.2885 19.0268 43.7525 19.1042 44.2651 19.1042C44.7998 19.1042 45.2683 19.0246 45.6704 18.8655C46.077 18.702 46.3952 18.4766 46.625 18.1894C46.8548 17.8977 46.9719 17.5574 46.9763 17.1686C46.9719 16.815 46.868 16.5234 46.6647 16.2936C46.4614 16.0593 46.1764 15.8649 45.8096 15.7102C45.4472 15.5511 45.023 15.4097 44.5369 15.286L42.9924 14.8883C41.8743 14.601 40.9905 14.1657 40.3409 13.5824C39.6957 12.9946 39.3731 12.2146 39.3731 11.2424C39.3731 10.4425 39.5896 9.74211 40.0227 9.1411C40.4602 8.54009 41.0546 8.07386 41.8058 7.74242C42.5571 7.40656 43.4078 7.23863 44.3579 7.23863C45.3213 7.23863 46.1654 7.40656 46.8901 7.74242C47.6193 8.07386 48.1916 8.53567 48.607 9.12784C49.0224 9.71559 49.2367 10.3917 49.25 11.1562H46.8835ZM56.6063 10.8182V12.6742H50.753V10.8182H56.6063ZM52.1981 8.37879H54.5977V17.9375C54.5977 18.2601 54.6463 18.5076 54.7436 18.6799C54.8452 18.8479 54.9778 18.9628 55.1413 19.0246C55.3048 19.0865 55.486 19.1174 55.6849 19.1174C55.8351 19.1174 55.9721 19.1064 56.0958 19.0843C56.224 19.0622 56.3212 19.0423 56.3875 19.0246L56.7919 20.9006C56.6637 20.9448 56.4803 20.9934 56.2417 21.0464C56.0075 21.0994 55.7202 21.1304 55.3799 21.1392C54.7789 21.1569 54.2376 21.0663 53.7559 20.8674C53.2742 20.6641 52.8919 20.3504 52.6091 19.9261C52.3307 19.5019 52.1937 18.9716 52.1981 18.3352V8.37879ZM61.543 21.2055C60.8978 21.2055 60.3167 21.0906 59.7997 20.8608C59.2871 20.6266 58.8805 20.2819 58.58 19.8267C58.2839 19.3715 58.1359 18.8103 58.1359 18.143C58.1359 17.5685 58.2419 17.0934 58.454 16.7178C58.6662 16.3422 58.9556 16.0417 59.3224 15.8163C59.6892 15.5909 60.1024 15.4208 60.562 15.3059C61.026 15.1866 61.5055 15.1004 62.0004 15.0473C62.597 14.9855 63.0809 14.9302 63.4521 14.8816C63.8234 14.8286 64.0929 14.7491 64.2609 14.643C64.4332 14.5325 64.5194 14.3624 64.5194 14.1326V14.0928C64.5194 13.5934 64.3713 13.2068 64.0752 12.9328C63.7792 12.6588 63.3527 12.5218 62.7959 12.5218C62.2081 12.5218 61.7419 12.6499 61.3972 12.9062C61.0569 13.1626 60.8271 13.4653 60.7078 13.8144L58.4673 13.4962C58.6441 12.8775 58.9357 12.3605 59.3423 11.9451C59.7489 11.5253 60.246 11.2115 60.8338 11.0038C61.4215 10.7917 62.0711 10.6856 62.7826 10.6856C63.2732 10.6856 63.7615 10.7431 64.2476 10.858C64.7337 10.9729 65.1778 11.1629 65.58 11.428C65.9821 11.6888 66.3047 12.0445 66.5478 12.4953C66.7953 12.946 66.919 13.5095 66.919 14.1856V21H64.6122V19.6013H64.5326C64.3868 19.8842 64.1813 20.1493 63.9162 20.3968C63.6554 20.6398 63.3262 20.8365 62.9285 20.9867C62.5352 21.1326 62.0734 21.2055 61.543 21.2055ZM62.1662 19.4422C62.6478 19.4422 63.0655 19.3472 63.419 19.1572C63.7725 18.9628 64.0443 18.7064 64.2343 18.3883C64.4288 18.0701 64.526 17.7232 64.526 17.3475V16.1477C64.4509 16.2096 64.3227 16.267 64.1415 16.3201C63.9648 16.3731 63.7659 16.4195 63.5449 16.4593C63.324 16.4991 63.1052 16.5344 62.8887 16.5653C62.6722 16.5963 62.4843 16.6228 62.3252 16.6449C61.9673 16.6935 61.6469 16.773 61.3641 16.8835C61.0812 16.994 60.8581 17.1487 60.6946 17.3475C60.5311 17.542 60.4493 17.7939 60.4493 18.1032C60.4493 18.5451 60.6106 18.8788 60.9332 19.1042C61.2558 19.3295 61.6668 19.4422 62.1662 19.4422ZM69.3319 21V10.8182H71.6586V12.5152H71.7646C71.9502 11.9274 72.2684 11.4744 72.7192 11.1562C73.1744 10.8336 73.6936 10.6723 74.2769 10.6723C74.4095 10.6723 74.5576 10.679 74.7211 10.6922C74.889 10.7011 75.0282 10.7165 75.1387 10.7386V12.946C75.0371 12.9107 74.8758 12.8797 74.6548 12.8532C74.4383 12.8223 74.2283 12.8068 74.0251 12.8068C73.5876 12.8068 73.1942 12.9018 72.8451 13.0919C72.5004 13.2775 72.2287 13.536 72.0298 13.8674C71.8309 14.1989 71.7315 14.5811 71.7315 15.0142V21H69.3319ZM82.3641 10.8182V12.6742H76.5109V10.8182H82.3641ZM77.9559 8.37879H80.3555V17.9375C80.3555 18.2601 80.4042 18.5076 80.5014 18.6799C80.603 18.8479 80.7356 18.9628 80.8991 19.0246C81.0626 19.0865 81.2438 19.1174 81.4427 19.1174C81.5929 19.1174 81.7299 19.1064 81.8537 19.0843C81.9818 19.0622 82.079 19.0423 82.1453 19.0246L82.5497 20.9006C82.4215 20.9448 82.2381 20.9934 81.9995 21.0464C81.7653 21.0994 81.478 21.1304 81.1377 21.1392C80.5367 21.1569 79.9954 21.0663 79.5137 20.8674C79.032 20.6641 78.6497 20.3504 78.3669 19.9261C78.0885 19.5019 77.9515 18.9716 77.9559 18.3352V8.37879ZM90.8605 16.7178V10.8182H93.2601V21H90.9334V19.1903H90.8274C90.5976 19.7604 90.2197 20.2266 89.6939 20.589C89.1724 20.9514 88.5294 21.1326 87.7649 21.1326C87.0976 21.1326 86.5076 20.9845 85.995 20.6884C85.4868 20.3879 85.0891 19.9527 84.8018 19.3826C84.5146 18.8081 84.3709 18.1143 84.3709 17.3011V10.8182H86.7706V16.9299C86.7706 17.5751 86.9473 18.0878 87.3009 18.4678C87.6544 18.8479 88.1184 19.0379 88.6929 19.0379C89.0464 19.0379 89.3889 18.9517 89.7204 18.7794C90.0518 18.607 90.3236 18.3507 90.5357 18.0104C90.7523 17.6657 90.8605 17.2348 90.8605 16.7178ZM95.7277 24.8182V10.8182H98.0876V12.5019H98.2268C98.3505 12.2544 98.5251 11.9915 98.7504 11.7131C98.9758 11.4302 99.2807 11.1894 99.6652 10.9905C100.05 10.7872 100.54 10.6856 101.137 10.6856C101.923 10.6856 102.633 10.8867 103.265 11.2888C103.901 11.6866 104.405 12.2765 104.776 13.0587C105.152 13.8365 105.339 14.791 105.339 15.9223C105.339 17.0404 105.156 17.9905 104.789 18.7727C104.422 19.5549 103.923 20.1515 103.291 20.5625C102.659 20.9735 101.943 21.179 101.143 21.179C100.56 21.179 100.076 21.0818 99.6917 20.8873C99.3073 20.6929 98.9979 20.4586 98.7637 20.1847C98.5339 19.9062 98.3549 19.6433 98.2268 19.3958H98.1273V24.8182H95.7277ZM98.0809 15.9091C98.0809 16.5676 98.1737 17.1443 98.3593 17.6392C98.5494 18.1342 98.8211 18.5208 99.1747 18.7992C99.5326 19.0732 99.9657 19.2102 100.474 19.2102C101.004 19.2102 101.448 19.0688 101.806 18.786C102.164 18.4987 102.434 18.1076 102.615 17.6127C102.801 17.1133 102.893 16.5455 102.893 15.9091C102.893 15.2771 102.803 14.7159 102.622 14.2254C102.44 13.7348 102.171 13.3504 101.813 13.072C101.455 12.7936 101.009 12.6544 100.474 12.6544C99.9613 12.6544 99.526 12.7891 99.1681 13.0587C98.8101 13.3283 98.5383 13.7061 98.3527 14.1922C98.1715 14.6783 98.0809 15.2506 98.0809 15.9091Z" fill="#2EE2B7"/>
</svg>
